<svg width="3353" height="10890" viewBox="0 0 3353 10890" fill="none" xmlns="http://www.w3.org/2000/svg">
<g opacity="0.68" filter="url(#filter0_f_1173_11557)">
<path fill-rule="evenodd" clip-rule="evenodd" d="M1981.56 400.054C2046.78 397.433 2086.03 490.52 2122.97 559.482C2151.86 613.408 2161.56 675.424 2164.06 740.76C2166.75 810.964 2179.57 895.565 2137.56 940.732C2096.13 985.269 2035.6 938.915 1981.56 936.968C1930.44 935.128 1873.53 971.52 1834.08 929.804C1793.37 886.751 1793.25 808.323 1796.01 740.76C1798.59 677.37 1820.39 622.55 1848.73 570.501C1886.01 502.048 1916.46 402.67 1981.56 400.054Z" fill="#68DCE2"/>
<path fill-rule="evenodd" clip-rule="evenodd" d="M1964.56 2095.05C2029.78 2092.43 2069.03 2185.52 2105.97 2254.48C2134.86 2308.41 2144.56 2370.42 2147.06 2435.76C2149.75 2505.96 2162.57 2590.57 2120.56 2635.73C2079.13 2680.27 2018.6 2633.91 1964.56 2631.97C1913.44 2630.13 1856.53 2666.52 1817.08 2624.8C1776.37 2581.75 1776.25 2503.32 1779.01 2435.76C1781.59 2372.37 1803.39 2317.55 1831.73 2265.5C1869.01 2197.05 1899.46 2097.67 1964.56 2095.05Z" fill="#68DCE2"/>
<path fill-rule="evenodd" clip-rule="evenodd" d="M1857.13 909.034C1960.82 907.924 2073.86 933.848 2134.77 1008.92C2191.29 1078.58 2163.69 1173.93 2139.69 1257.29C2122.2 1318.03 2074.11 1362.92 2021.04 1403.92C1973.19 1440.88 1919.14 1464.59 1857.13 1475.58C1773.88 1490.33 1683.74 1517.24 1612.24 1476.36C1530.33 1429.52 1480.33 1344.14 1475.4 1257.29C1470.26 1166.65 1515.02 1079.6 1586.05 1014.8C1657.8 949.34 1754.65 910.131 1857.13 909.034Z" fill="#8F97DB"/>
<path fill-rule="evenodd" clip-rule="evenodd" d="M1087.13 1076.03C1190.82 1075.1 1303.86 1096.84 1364.77 1159.81C1421.29 1218.23 1393.69 1298.2 1369.69 1368.11C1352.2 1419.06 1304.11 1456.71 1251.04 1491.09C1203.19 1522.09 1149.14 1541.98 1087.13 1551.19C1003.88 1563.56 913.735 1586.14 842.235 1551.85C760.331 1512.57 710.328 1440.95 705.401 1368.11C700.258 1292.09 745.016 1219.09 816.049 1164.73C887.797 1109.83 984.654 1076.95 1087.13 1076.03Z" fill="#DA8FDB"/>
<path fill-rule="evenodd" clip-rule="evenodd" d="M1960.13 1773.03C2063.82 1772.1 2176.86 1793.84 2237.77 1856.81C2294.29 1915.23 2266.69 1995.2 2242.69 2065.11C2225.2 2116.06 2177.11 2153.71 2124.04 2188.09C2076.19 2219.09 2022.14 2238.98 1960.13 2248.19C1876.88 2260.56 1786.74 2283.14 1715.24 2248.85C1633.33 2209.57 1583.33 2137.95 1578.4 2065.11C1573.26 1989.09 1618.02 1916.09 1689.05 1861.73C1760.8 1806.83 1857.65 1773.95 1960.13 1773.03Z" fill="#DA8FDB"/>
<path fill-rule="evenodd" clip-rule="evenodd" d="M944.792 2681.02C1092.62 2680.21 1253.78 2699.18 1340.63 2754.12C1421.21 2805.09 1381.86 2874.86 1347.64 2935.86C1322.71 2980.31 1254.14 3013.16 1178.48 3043.15C1110.26 3070.2 1033.2 3087.55 944.792 3095.59C826.113 3106.38 697.591 3126.08 595.654 3096.16C478.885 3061.89 407.596 2999.41 400.571 2935.86C393.24 2869.53 457.05 2805.84 558.321 2758.42C660.611 2710.52 798.698 2681.83 944.792 2681.02Z" fill="#DA8FDB"/>
<path fill-rule="evenodd" clip-rule="evenodd" d="M855.305 4967.03C972.613 4965.96 1100.5 4991.09 1169.41 5063.87C1233.35 5131.4 1202.13 5223.84 1174.97 5304.65C1155.19 5363.53 1100.78 5407.05 1040.74 5446.79C986.609 5482.62 925.462 5505.61 855.305 5516.26C761.131 5530.56 659.145 5556.66 578.256 5517.02C485.597 5471.61 429.028 5388.84 423.453 5304.65C417.636 5216.77 468.271 5132.39 548.631 5069.56C629.801 5006.11 739.376 4968.1 855.305 4967.03Z" fill="#DA8FDB"/>
<path fill-rule="evenodd" clip-rule="evenodd" d="M2241.79 5922.03C2389.62 5920.96 2550.78 5946.09 2637.63 6018.87C2718.21 6086.4 2678.86 6178.84 2644.64 6259.65C2619.71 6318.53 2551.14 6362.05 2475.48 6401.79C2407.26 6437.62 2330.2 6460.61 2241.79 6471.26C2123.11 6485.56 1994.59 6511.66 1892.65 6472.02C1775.88 6426.61 1704.6 6343.84 1697.57 6259.65C1690.24 6171.77 1754.05 6087.39 1855.32 6024.56C1957.61 5961.11 2095.7 5923.1 2241.79 5922.03Z" fill="#8F97DB"/>
<path fill-rule="evenodd" clip-rule="evenodd" d="M1081.79 5420.03C1229.62 5418.96 1390.78 5444.09 1477.63 5516.87C1558.21 5584.4 1518.86 5676.84 1484.64 5757.65C1459.71 5816.53 1391.14 5860.05 1315.48 5899.79C1247.26 5935.62 1170.2 5958.61 1081.79 5969.26C963.113 5983.56 834.591 6009.66 732.654 5970.02C615.885 5924.61 544.596 5841.84 537.571 5757.65C530.24 5669.77 594.05 5585.39 695.321 5522.56C797.611 5459.11 935.698 5421.1 1081.79 5420.03Z" fill="#68DCE2"/>
<path fill-rule="evenodd" clip-rule="evenodd" d="M2509.79 3601.03C2657.62 3599.96 2818.78 3625.09 2905.63 3697.87C2986.21 3765.4 2946.86 3857.84 2912.64 3938.65C2887.71 3997.53 2819.14 4041.05 2743.48 4080.79C2675.26 4116.62 2598.2 4139.61 2509.79 4150.26C2391.11 4164.56 2262.59 4190.66 2160.65 4151.02C2043.88 4105.61 1972.6 4022.84 1965.57 3938.65C1958.24 3850.77 2022.05 3766.39 2123.32 3703.56C2225.61 3640.11 2363.7 3602.1 2509.79 3601.03Z" fill="#68DCE2"/>
<path fill-rule="evenodd" clip-rule="evenodd" d="M1399.79 9919.03C1547.62 9917.96 1708.78 9943.09 1795.63 10015.9C1876.21 10083.4 1836.86 10175.8 1802.64 10256.6C1777.71 10315.5 1709.14 10359 1633.48 10398.8C1565.26 10434.6 1488.2 10457.6 1399.79 10468.3C1281.11 10482.6 1152.59 10508.7 1050.65 10469C933.885 10423.6 862.596 10340.8 855.571 10256.6C848.24 10168.8 912.05 10084.4 1013.32 10021.6C1115.61 9958.11 1253.7 9920.1 1399.79 9919.03Z" fill="#8F97DB"/>
</g>
<defs>
<filter id="filter0_f_1173_11557" x="0" y="0" width="3353" height="10890" filterUnits="userSpaceOnUse" color-interpolation-filters="sRGB">
<feFlood flood-opacity="0" result="BackgroundImageFix"/>
<feBlend mode="normal" in="SourceGraphic" in2="BackgroundImageFix" result="shape"/>
<feGaussianBlur stdDeviation="200" result="effect1_foregroundBlur_1173_11557"/>
</filter>
</defs>
</svg>
