<svg width="388" height="388" viewBox="0 0 388 388" fill="none" xmlns="http://www.w3.org/2000/svg">
<rect width="388" height="388" rx="90" fill="url(#paint0_linear_74_7)"/>
<path d="M51.4492 177.177C57.4504 185.659 179.533 312 187.035 312C194.537 312 262.553 240.651 267.055 231.67C267.055 231.67 217.632 203.445 200.628 177.177C197.504 172.351 195.05 167.497 193.126 162.787C184.577 141.86 184.623 120.621 184.623 120.621C184.623 120.621 180.177 99.5702 155.027 85.6948C135.16 74.7336 99.0525 70.9414 76.0972 85.6948C24.0837 119.124 45.448 168.695 51.4492 177.177Z" stroke="white" stroke-width="9"/>
<path fill-rule="evenodd" clip-rule="evenodd" d="M135.065 167.537C136.205 167.901 137.999 168.695 139.05 169.3C142.362 171.207 146.9 176.716 149.088 181.487C150.056 183.598 153.138 193.677 153.668 196.464C153.979 198.098 154.16 198.398 157.311 202.523C160.231 206.345 165.988 213.344 168.643 216.302C169.287 217.019 169.587 217.173 169.651 216.819C169.705 216.515 168.026 213.531 165.43 209.317C159.936 200.399 159.128 198.663 158.546 194.512C158.06 191.048 158.354 190.018 159.984 189.478C161.393 189.011 164.418 189.747 166.576 191.082C170.864 193.735 173.411 197.7 173.957 202.573C175.153 213.238 176.425 219.021 178.706 224.147C179.857 226.736 186.848 236.323 189.55 239.018C190.533 239.999 192.531 242.245 193.988 244.009C195.445 245.772 197.574 248.179 198.718 249.357C201.085 251.794 202.531 252.765 200.882 250.809C195.496 244.42 195.077 243.78 192.857 238.542C190.145 232.141 187.606 220.238 188.357 217.446C189.12 214.61 191.053 213.712 194.488 214.596C197.929 215.483 198.695 216.004 199.931 218.299C201.205 220.668 202.023 223.897 203.736 233.321C204.472 237.368 205.402 242.475 205.804 244.671C207.144 251.99 208.625 256.987 210.143 259.313C211.801 261.854 212.253 262.175 219.657 266.069C224.532 268.634 225.638 269.35 226.318 270.384C227.09 271.558 227.09 271.652 226.315 272.159C225.866 272.454 225.188 272.621 224.81 272.532C223.858 272.306 214.471 267.135 211.906 265.424C210.748 264.651 208.886 263.582 207.767 263.047C206.648 262.512 204.912 261.55 203.909 260.908C201.311 259.246 199.196 259.061 192.314 259.89C184.775 260.799 182.418 260.448 176.812 257.582C174.714 256.509 172.49 255.234 171.869 254.747C170.528 253.697 168.105 250.173 167.983 249.095C167.877 248.158 169.063 247.331 172.198 246.154C176.099 244.689 180.208 245.121 184.225 247.419C186.293 248.602 199.855 254.878 199.892 254.669C199.905 254.596 198.602 253.228 196.995 251.629C195.388 250.03 192.534 247.07 190.652 245.051C186.182 240.257 184.321 238.665 180.16 236.076C177.165 234.213 176.118 233.786 172.099 232.79C167.314 231.603 162.049 230.841 157.45 230.669C151.627 230.452 146.484 228.583 142.506 225.237C139.191 222.45 137.923 220.786 137.848 219.124C137.744 216.816 139.08 215.54 142.112 215.052C145.462 214.513 148.797 214.746 152.928 215.808C160.52 217.76 168.449 222.092 174.058 227.352C174.692 227.947 175.224 228.359 175.239 228.268C175.278 228.042 166.754 217.746 162.766 213.2C160.996 211.183 158.287 208.016 156.747 206.163C154.375 203.309 153.19 202.205 148.998 198.952C141.078 192.806 140.192 191.941 137.283 187.525C134.822 183.787 133.504 180.898 131.385 174.592C130.716 172.604 131.291 169.004 132.523 167.462C132.9 166.99 133.405 167.005 135.065 167.537Z" fill="white"/>
<path d="M192.076 158.36C183.511 135.755 186.564 117.006 186.564 117.006C186.564 117.006 188.137 106.657 197.085 95.4469C203.636 87.2401 214.188 78.4054 224.141 76.583C247.689 72.2712 266.227 93.291 266.227 93.291C266.227 93.291 281.258 64.1868 317.332 81.9727C333.965 90.1737 344.519 112.356 345.89 130.059C347.492 150.749 331.07 167.786 331.07 167.786C331.07 167.786 273.743 230.712 266.227 230.173C258.711 229.634 216.626 202.28 199.591 173.905C196.461 168.692 194.003 163.448 192.076 158.36ZM192.076 158.36C210.664 158.36 221.085 158.36 239.673 158.36C245.543 144.151 248.834 136.184 254.704 121.974L272.24 167.786L285.266 149.461" stroke="white" stroke-width="9"/>
<defs>
<linearGradient id="paint0_linear_74_7" x1="194" y1="0" x2="194" y2="388" gradientUnits="userSpaceOnUse">
<stop offset="0.285" stop-color="#336E99"/>
<stop offset="1" stop-color="#7E8BD7"/>
</linearGradient>
</defs>
</svg>
